<svg width="452" height="135" viewBox="0 0 452 135" fill="none" xmlns="http://www.w3.org/2000/svg">
<rect width="452" height="135" rx="25" fill="black"/>
<rect x="85" y="43" width="35" height="10" fill="#2C871D"/>
<rect x="85" y="63" width="23" height="9" fill="#2C871D"/>
<rect x="85" y="82" width="35" height="10" fill="#2C871D"/>
<rect x="273" y="60" width="11" height="32" fill="white"/>
<circle cx="279" cy="49" r="6" fill="#2C871D"/>
<path d="M58.2676 42.2344V92H48.9023V42.2344H58.2676ZM73.7168 42.2344V49.6514H33.624V42.2344H73.7168ZM159.679 75.6279H169.078C168.827 78.9548 167.905 81.9056 166.31 84.4805C164.715 87.0326 162.493 89.0378 159.645 90.4961C156.796 91.9544 153.344 92.6836 149.288 92.6836C146.166 92.6836 143.352 92.1367 140.846 91.043C138.362 89.9264 136.231 88.3428 134.454 86.292C132.7 84.2184 131.355 81.7347 130.421 78.8408C129.487 75.9242 129.02 72.6543 129.02 69.0312V65.2373C129.02 61.6143 129.498 58.3444 130.455 55.4277C131.412 52.5111 132.779 50.0273 134.557 47.9766C136.357 45.903 138.51 44.3079 141.017 43.1914C143.546 42.0749 146.371 41.5166 149.493 41.5166C153.549 41.5166 156.979 42.2686 159.781 43.7725C162.584 45.2536 164.76 47.293 166.31 49.8906C167.859 52.4883 168.793 55.4733 169.112 58.8457H159.713C159.531 56.7493 159.075 54.972 158.346 53.5137C157.639 52.0553 156.568 50.9502 155.133 50.1982C153.72 49.4235 151.84 49.0361 149.493 49.0361C147.67 49.0361 146.064 49.3779 144.674 50.0615C143.307 50.7451 142.167 51.7705 141.256 53.1377C140.344 54.4821 139.661 56.1683 139.205 58.1963C138.749 60.2015 138.521 62.5257 138.521 65.1689V69.0312C138.521 71.5605 138.727 73.8278 139.137 75.833C139.547 77.8382 140.185 79.5358 141.051 80.9258C141.917 82.3158 143.033 83.3753 144.4 84.1045C145.768 84.8337 147.397 85.1982 149.288 85.1982C151.59 85.1982 153.458 84.8337 154.894 84.1045C156.352 83.3753 157.457 82.3044 158.209 80.8916C158.984 79.4788 159.474 77.7243 159.679 75.6279ZM209.376 62.7764V70.1592H183.194V62.7764H209.376ZM185.758 42.2344V92H176.358V42.2344H185.758ZM216.349 42.2344V92H206.949V42.2344H216.349ZM264.747 66.2627V85.6426C264.018 86.5768 262.867 87.5908 261.295 88.6846C259.745 89.7783 257.717 90.724 255.211 91.5215C252.704 92.2962 249.628 92.6836 245.982 92.6836C242.815 92.6836 239.921 92.1595 237.301 91.1113C234.68 90.0404 232.424 88.4795 230.533 86.4287C228.642 84.3779 227.184 81.8714 226.158 78.9092C225.133 75.9469 224.62 72.5632 224.62 68.7578V65.4766C224.62 61.6712 225.099 58.2874 226.056 55.3252C227.035 52.363 228.425 49.8564 230.226 47.8057C232.049 45.7549 234.225 44.194 236.754 43.123C239.306 42.0521 242.154 41.5166 245.299 41.5166C249.514 41.5166 252.978 42.2116 255.689 43.6016C258.424 44.9915 260.52 46.9056 261.979 49.3438C263.437 51.7591 264.348 54.5391 264.713 57.6836H255.553C255.302 55.9518 254.801 54.4365 254.049 53.1377C253.297 51.8161 252.226 50.7907 250.836 50.0615C249.469 49.3096 247.691 48.9336 245.504 48.9336C243.658 48.9336 242.029 49.2982 240.616 50.0273C239.203 50.7565 238.019 51.8161 237.062 53.2061C236.104 54.596 235.375 56.3164 234.874 58.3672C234.396 60.418 234.156 62.765 234.156 65.4082V68.7578C234.156 71.4238 234.43 73.7936 234.977 75.8672C235.523 77.918 236.31 79.6497 237.335 81.0625C238.383 82.4525 239.671 83.512 241.197 84.2412C242.747 84.9476 244.501 85.3008 246.461 85.3008C248.238 85.3008 249.708 85.1527 250.87 84.8564C252.055 84.5374 253.001 84.1615 253.707 83.7285C254.413 83.2956 254.96 82.874 255.348 82.4639V73.1328H245.47V66.2627H264.747ZM320.187 75.6279H329.586C329.335 78.9548 328.412 81.9056 326.817 84.4805C325.222 87.0326 323.001 89.0378 320.152 90.4961C317.304 91.9544 313.852 92.6836 309.796 92.6836C306.674 92.6836 303.86 92.1367 301.354 91.043C298.87 89.9264 296.739 88.3428 294.962 86.292C293.207 84.2184 291.863 81.7347 290.929 78.8408C289.994 75.9242 289.527 72.6543 289.527 69.0312V65.2373C289.527 61.6143 290.006 58.3444 290.963 55.4277C291.92 52.5111 293.287 50.0273 295.064 47.9766C296.865 45.903 299.018 44.3079 301.524 43.1914C304.054 42.0749 306.879 41.5166 310.001 41.5166C314.057 41.5166 317.486 42.2686 320.289 43.7725C323.092 45.2536 325.268 47.293 326.817 49.8906C328.367 52.4883 329.301 55.4733 329.62 58.8457H320.221C320.038 56.7493 319.583 54.972 318.854 53.5137C318.147 52.0553 317.076 50.9502 315.641 50.1982C314.228 49.4235 312.348 49.0361 310.001 49.0361C308.178 49.0361 306.572 49.3779 305.182 50.0615C303.814 50.7451 302.675 51.7705 301.764 53.1377C300.852 54.4821 300.169 56.1683 299.713 58.1963C299.257 60.2015 299.029 62.5257 299.029 65.1689V69.0312C299.029 71.5605 299.234 73.8278 299.645 75.833C300.055 77.8382 300.693 79.5358 301.559 80.9258C302.424 82.3158 303.541 83.3753 304.908 84.1045C306.275 84.8337 307.905 85.1982 309.796 85.1982C312.097 85.1982 313.966 84.8337 315.401 84.1045C316.86 83.3753 317.965 82.3044 318.717 80.8916C319.492 79.4788 319.981 77.7243 320.187 75.6279ZM364.552 42.2344H373.951V75.2861C373.951 79.0915 373.131 82.293 371.49 84.8906C369.85 87.4655 367.617 89.4137 364.791 90.7354C361.965 92.0342 358.753 92.6836 355.152 92.6836C351.507 92.6836 348.259 92.0342 345.411 90.7354C342.563 89.4137 340.33 87.4655 338.712 84.8906C337.094 82.293 336.285 79.0915 336.285 75.2861V42.2344H345.685V75.2861C345.685 77.6104 346.072 79.513 346.847 80.9941C347.621 82.4525 348.715 83.5348 350.128 84.2412C351.541 84.9476 353.215 85.3008 355.152 85.3008C357.112 85.3008 358.787 84.9476 360.177 84.2412C361.59 83.5348 362.672 82.4525 363.424 80.9941C364.176 79.513 364.552 77.6104 364.552 75.2861V42.2344ZM408.917 79.0801C408.917 78.123 408.769 77.2686 408.473 76.5166C408.199 75.7419 407.687 75.0469 406.935 74.4316C406.205 73.7936 405.169 73.1784 403.824 72.5859C402.503 71.9707 400.794 71.3327 398.697 70.6719C396.373 69.9427 394.208 69.1224 392.203 68.2109C390.198 67.2995 388.432 66.2399 386.905 65.0322C385.401 63.8245 384.228 62.4346 383.385 60.8623C382.542 59.2673 382.12 57.4215 382.12 55.3252C382.12 53.2744 382.553 51.4059 383.419 49.7197C384.308 48.0335 385.561 46.5866 387.179 45.3789C388.797 44.1484 390.699 43.2028 392.887 42.542C395.097 41.8812 397.535 41.5508 400.201 41.5508C403.893 41.5508 407.083 42.223 409.771 43.5674C412.483 44.9118 414.579 46.7347 416.061 49.0361C417.542 51.3376 418.282 53.9238 418.282 56.7949H408.917C408.917 55.2454 408.587 53.8783 407.926 52.6934C407.288 51.5085 406.308 50.5742 404.986 49.8906C403.688 49.207 402.047 48.8652 400.064 48.8652C398.15 48.8652 396.555 49.1501 395.279 49.7197C394.026 50.2894 393.08 51.0641 392.442 52.0439C391.827 53.0238 391.52 54.1175 391.52 55.3252C391.52 56.2367 391.736 57.057 392.169 57.7861C392.602 58.4925 393.251 59.1647 394.117 59.8027C394.983 60.418 396.054 60.999 397.33 61.5459C398.629 62.07 400.133 62.5941 401.842 63.1182C404.576 63.9385 406.969 64.8499 409.02 65.8525C411.093 66.8551 412.813 67.9945 414.181 69.2705C415.571 70.5465 416.607 71.9821 417.291 73.5771C417.997 75.1722 418.351 76.9837 418.351 79.0117C418.351 81.1536 417.929 83.0677 417.086 84.7539C416.243 86.4401 415.035 87.8757 413.463 89.0605C411.891 90.2454 409.999 91.1455 407.789 91.7607C405.602 92.376 403.152 92.6836 400.44 92.6836C398.025 92.6836 395.632 92.3646 393.263 91.7266C390.916 91.0658 388.785 90.0859 386.871 88.7871C384.957 87.4655 383.43 85.8021 382.291 83.7969C381.152 81.7689 380.582 79.3991 380.582 76.6875H390.016C390.016 78.2598 390.266 79.6042 390.768 80.7207C391.292 81.8145 392.021 82.7145 392.955 83.4209C393.912 84.1045 395.029 84.6058 396.305 84.9248C397.581 85.2438 398.959 85.4033 400.44 85.4033C402.354 85.4033 403.927 85.1413 405.157 84.6172C406.41 84.0703 407.345 83.3184 407.96 82.3613C408.598 81.4043 408.917 80.3105 408.917 79.0801Z" fill="white"/>
</svg>
